<svg width="48" height="48" viewBox="0 0 48 48" fill="none" xmlns="http://www.w3.org/2000/svg">
<path d="M24.0737 1L43.3074 12.2956V34.8869L24.0737 46.1825L4.84009 34.8869V12.2956L24.0737 1Z" fill="#F4F5FB"/>
<path d="M43.2941 13.8961V34.8847L41.762 35.7772L25.4739 45.3716V40.2694L37.4334 33.2336L38.8167 32.4303V16.5439L43.2941 13.8961Z" fill="#0D0D0C"/>
<path d="M41.9625 11.4869L37.2956 14.209L23.985 6.44424L10.6895 14.209L6.0376 11.4869L24.0001 1L41.9625 11.4869Z" fill="#0065F8"/>
<path d="M21.5825 30.317C21.5825 31.4921 21.9098 32.3251 22.5643 32.816C23.189 33.3069 23.9774 33.5449 24.9294 33.5449H27.1755V29.9154H26.2681C25.6136 29.9154 25.2864 29.6179 25.2864 29.008V14.8173H21.5676V30.3021L21.5825 30.317Z" fill="#0065F6"/>
<path d="M22.6454 40.2694V45.3716L6.37221 35.7772L4.84009 34.8847V13.8961L9.31745 16.5439V32.4303L10.686 33.2336L22.6454 40.2694Z" fill="#0D0D0C"/>
</svg>
