<svg width="312" height="30" viewBox="0 0 312 30" fill="none" xmlns="http://www.w3.org/2000/svg">
<path d="M26 8.83997V22.95L24.97 23.55L14.02 30V26.57L22.06 21.84L22.99 21.3V10.62L26 8.83997Z" fill="#1C1F2A"/>
<path d="M24.97 7.05L21.86 8.88L14.02 4.26L12.99 3.66L11.97 4.26L4.13003 8.88L1.03003 7.05L11.97 0.6L12.99 0L14.02 0.6L24.97 7.05Z" fill="#0065F8"/>
<path d="M11.97 26.57V30L1.03 23.55L0 22.95V8.83997L3.01 10.62V21.3L3.93 21.84L11.97 26.57Z" fill="#1C1F2A"/>
<path d="M11.38 18.93C11.38 19.72 11.6 20.28 12.04 20.61C12.46 20.94 12.99 21.1 13.63 21.1H15.14V18.66H14.53C14.09 18.66 13.87 18.46 13.87 18.05V8.51001H11.37V18.92L11.38 18.93Z" fill="#0065F6"/>
<path d="M34 19.155L35.0966 17.435C35.8741 18.235 37.4093 18.975 38.8349 18.975C40.2604 18.975 41.038 18.375 41.038 17.505C41.038 15.325 34.3489 16.885 34.3489 12.605C34.3489 10.785 35.904 9.245 38.7053 9.245C40.5894 9.245 42.005 9.915 42.9919 10.785L41.985 12.485C41.3171 11.745 40.1009 11.155 38.7053 11.155C37.4492 11.155 36.6617 11.755 36.6617 12.535C36.6617 14.495 43.3508 13.015 43.3508 17.435C43.3508 19.415 41.7259 20.905 38.7452 20.905C36.8411 20.905 35.1464 20.285 34 19.155Z" fill="#1B1F2B"/>
<path d="M44.1781 15.065C44.1781 11.865 46.3314 9.245 49.8603 9.245C53.3893 9.245 55.5426 11.865 55.5426 15.065C55.5426 18.265 53.3893 20.905 49.8603 20.905C46.3314 20.905 44.1781 18.235 44.1781 15.065ZM53.0504 15.065C53.0504 13.105 51.9239 11.385 49.8603 11.385C47.7968 11.385 46.6703 13.105 46.6703 15.065C46.6703 17.025 47.8167 18.765 49.8603 18.765C51.904 18.765 53.0504 17.045 53.0504 15.065Z" fill="#1B1F2B"/>
<path d="M64.8137 20.625V13.685C64.8137 11.935 63.9165 11.385 62.5707 11.385C61.3545 11.385 60.2978 12.125 59.7296 12.855V20.625H57.3171V9.51499H59.7296V11.005C60.4673 10.135 61.9028 9.23499 63.6474 9.23499C66.0299 9.23499 67.2262 10.525 67.2262 12.795V20.615H64.8237L64.8137 20.625Z" fill="#1B1F2B"/>
<path d="M76.557 20.625V19.405C75.7296 20.375 74.4237 20.905 72.9583 20.905C71.1739 20.905 69.1302 19.665 69.1302 17.225C69.1302 14.645 71.144 13.595 72.9583 13.595C74.4736 13.595 75.7296 14.075 76.557 15.025V13.365C76.557 12.075 75.4804 11.295 73.9651 11.295C72.729 11.295 71.6225 11.755 70.6854 12.725L69.6785 11.045C70.9645 9.805 72.5695 9.255 74.334 9.255C76.8063 9.255 78.9595 10.295 78.9595 13.255V20.635H76.557V20.625ZM76.557 18.095V16.395C75.9789 15.635 74.9521 15.245 73.9253 15.245C72.5695 15.245 71.5427 16.045 71.5427 17.245C71.5427 18.445 72.5795 19.245 73.9253 19.245C74.962 19.245 75.9888 18.855 76.557 18.095Z" fill="#1B1F2B"/>
<path d="M82.3489 18.035V11.615H80.5146V9.52499H82.3489V6.48499H84.7614V9.52499H87.0044V11.615H84.7614V17.435C84.7614 18.195 85.1302 18.765 85.8181 18.765C86.2766 18.765 86.6854 18.555 86.8748 18.355L87.453 20.195C87.0143 20.585 86.3065 20.905 85.21 20.905C83.3259 20.905 82.3689 19.895 82.3689 18.025L82.3489 18.035Z" fill="#1B1F2B"/>
<path d="M89.3968 22.815C89.646 22.935 90.0348 22.995 90.3139 22.995C91.0915 22.995 91.5999 22.765 91.9189 22.025L92.4672 20.765L87.9015 9.52502H90.4934L93.7233 17.845L96.9532 9.52502H99.5252L94.1819 22.635C93.4242 24.515 92.1183 25.115 90.4037 25.145C90.0548 25.145 89.3669 25.075 89.0479 24.985L89.3868 22.825L89.3968 22.815Z" fill="#1B1F2B"/>
<path d="M103.174 19.085V24.855H100.761V9.515H103.174V11.035C104.001 9.935 105.287 9.245 106.723 9.245C109.594 9.245 111.627 11.405 111.627 15.065C111.627 18.725 109.584 20.905 106.723 20.905C105.327 20.905 104.091 20.265 103.174 19.085ZM109.155 15.065C109.155 12.905 107.919 11.385 106.015 11.385C104.888 11.385 103.722 12.025 103.174 12.855V17.245C103.702 18.075 104.888 18.765 106.015 18.765C107.919 18.765 109.155 17.225 109.155 15.065Z" fill="#1B1F2B"/>
<path d="M112.943 15.065C112.943 11.845 115.286 9.245 118.556 9.245C121.826 9.245 123.989 11.775 123.989 15.275V15.875H115.465C115.645 17.535 116.891 18.935 118.974 18.935C120.071 18.935 121.337 18.495 122.135 17.695L123.231 19.285C122.105 20.345 120.48 20.915 118.735 20.915C115.386 20.915 112.933 18.595 112.933 15.075L112.943 15.065ZM118.536 11.225C116.492 11.225 115.535 12.815 115.445 14.145H121.676C121.606 12.835 120.709 11.225 118.536 11.225Z" fill="#1B1F2B"/>
<path d="M131.256 20.6249V5.29492H134.167V20.6349H131.256V20.6249Z" fill="#0065F8"/>
<path d="M136.211 6.57498C136.211 5.60498 136.988 4.85498 137.925 4.85498C138.862 4.85498 139.67 5.61498 139.67 6.57498C139.67 7.53498 138.892 8.32498 137.925 8.32498C136.958 8.32498 136.211 7.54498 136.211 6.57498ZM136.49 20.625V9.51498H139.401V20.625H136.49Z" fill="#0065F8"/>
<path d="M142.541 20.6249V12.0749H140.707V9.52494H142.541V9.06494C142.541 6.55494 144.036 5.06494 146.259 5.06494C147.336 5.06494 148.482 5.36494 149.15 6.12494L148.054 7.89494C147.755 7.61494 147.366 7.45494 146.837 7.45494C146.01 7.45494 145.462 7.98494 145.462 9.06494V9.52494H147.705V12.0749H145.462V20.6249H142.551H142.541Z" fill="#0065F8"/>
<path d="M147.974 15.065C147.974 11.845 150.356 9.245 153.706 9.245C157.055 9.245 159.258 11.725 159.258 15.335V16.025H151.024C151.234 17.385 152.33 18.505 154.214 18.505C155.151 18.505 156.437 18.115 157.145 17.425L158.451 19.355C157.354 20.365 155.61 20.895 153.885 20.895C150.516 20.895 147.974 18.615 147.974 15.055V15.065ZM153.706 11.635C151.892 11.635 151.114 12.895 151.004 14.005H156.457C156.368 12.945 155.63 11.635 153.706 11.635Z" fill="#0065F8"/>
<path d="M160.335 15.065C160.335 11.665 162.807 9.245 166.207 9.245C168.48 9.245 169.855 10.235 170.583 11.245L168.679 13.035C168.151 12.255 167.353 11.835 166.336 11.835C164.572 11.835 163.336 13.125 163.336 15.055C163.336 16.985 164.572 18.295 166.336 18.295C167.343 18.295 168.151 17.835 168.679 17.075L170.583 18.865C169.845 19.875 168.47 20.885 166.207 20.885C162.817 20.885 160.335 18.465 160.335 15.045V15.065Z" fill="#0065F8"/>
<path d="M172.417 22.355C172.667 22.475 173.055 22.535 173.335 22.535C174.092 22.535 174.591 22.325 174.87 21.735L175.278 20.765L170.782 9.52502H173.903L176.794 17.255L179.705 9.52502H182.825L177.621 22.445C176.794 24.535 175.328 25.085 173.424 25.135C173.105 25.135 172.348 25.065 171.999 24.955L172.407 22.355H172.417Z" fill="#0065F8"/>
<path d="M182.735 15.065C182.735 11.665 185.207 9.245 188.607 9.245C190.88 9.245 192.255 10.235 192.983 11.245L191.079 13.035C190.551 12.255 189.753 11.835 188.736 11.835C186.972 11.835 185.736 13.125 185.736 15.055C185.736 16.985 186.972 18.295 188.736 18.295C189.743 18.295 190.551 17.835 191.079 17.075L192.983 18.865C192.245 19.875 190.87 20.885 188.607 20.885C185.217 20.885 182.735 18.465 182.735 15.045V15.065Z" fill="#0065F8"/>
<path d="M194.309 20.6249V5.29492H197.22V20.6349H194.309V20.6249Z" fill="#0065F8"/>
<path d="M198.715 15.065C198.715 11.845 201.098 9.245 204.447 9.245C207.797 9.245 210 11.725 210 15.335V16.025H201.766C201.975 17.385 203.072 18.505 204.956 18.505C205.893 18.505 207.179 18.115 207.887 17.425L209.192 19.355C208.096 20.365 206.351 20.895 204.627 20.895C201.257 20.895 198.715 18.615 198.715 15.055V15.065ZM204.447 11.635C202.633 11.635 201.855 12.895 201.746 14.005H207.199C207.109 12.945 206.371 11.635 204.447 11.635Z" fill="#0065F8"/>
<rect x="218" y="3" width="94" height="24" rx="8" fill="#0065F8"/>
<path d="M236.973 20H231.312V10.0059H236.973V11.3867H232.953V14.1006H236.72V15.4746H232.953V18.6123H236.973V20ZM242.913 12.2891C243.765 12.2891 244.428 12.5101 244.902 12.9521C245.381 13.3896 245.62 14.0938 245.62 15.0645V20H244.014V15.3652C244.014 14.7773 243.893 14.3376 243.651 14.0459C243.41 13.7497 243.036 13.6016 242.53 13.6016C241.797 13.6016 241.286 13.8271 240.999 14.2783C240.716 14.7295 240.575 15.3835 240.575 16.2402V20H238.969V12.4326H240.22L240.445 13.458H240.534C240.698 13.1937 240.901 12.9772 241.143 12.8086C241.389 12.6354 241.662 12.5055 241.963 12.4189C242.268 12.3324 242.585 12.2891 242.913 12.2891ZM250.686 18.8379C250.895 18.8379 251.103 18.8197 251.308 18.7832C251.513 18.7422 251.7 18.6943 251.868 18.6396V19.8564C251.69 19.9339 251.46 20 251.178 20.0547C250.895 20.1094 250.601 20.1367 250.296 20.1367C249.868 20.1367 249.482 20.0661 249.141 19.9248C248.799 19.779 248.528 19.5306 248.327 19.1797C248.127 18.8288 248.026 18.3434 248.026 17.7236V13.6562H246.994V12.9385L248.102 12.3711L248.628 10.751H249.64V12.4326H251.807V13.6562H249.64V17.7031C249.64 18.0859 249.735 18.3708 249.927 18.5576C250.118 18.7445 250.371 18.8379 250.686 18.8379ZM256.421 12.2891C257.095 12.2891 257.674 12.4281 258.157 12.7061C258.64 12.984 259.012 13.3783 259.271 13.8887C259.531 14.3991 259.661 15.0098 259.661 15.7207V16.582H254.609C254.628 17.3158 254.824 17.8809 255.197 18.2773C255.576 18.6738 256.104 18.8721 256.783 18.8721C257.266 18.8721 257.699 18.8265 258.082 18.7354C258.469 18.6396 258.868 18.5007 259.278 18.3184V19.624C258.9 19.8018 258.515 19.9316 258.123 20.0137C257.731 20.0957 257.262 20.1367 256.715 20.1367C255.972 20.1367 255.318 19.9932 254.753 19.7061C254.192 19.4144 253.753 18.9814 253.434 18.4072C253.119 17.833 252.962 17.1198 252.962 16.2676C252.962 15.4199 253.105 14.6999 253.393 14.1074C253.68 13.515 254.083 13.0638 254.603 12.7539C255.122 12.444 255.728 12.2891 256.421 12.2891ZM256.421 13.499C255.915 13.499 255.505 13.6631 255.19 13.9912C254.881 14.3193 254.698 14.8001 254.644 15.4336H258.089C258.084 15.0553 258.021 14.7204 257.897 14.4287C257.779 14.137 257.597 13.9092 257.351 13.7451C257.109 13.5811 256.799 13.499 256.421 13.499ZM265.308 12.2891C265.435 12.2891 265.574 12.2959 265.725 12.3096C265.875 12.3232 266.005 12.3415 266.114 12.3643L265.964 13.8682C265.868 13.8408 265.75 13.8203 265.608 13.8066C265.472 13.793 265.349 13.7861 265.239 13.7861C264.952 13.7861 264.679 13.834 264.419 13.9297C264.159 14.0208 263.929 14.1621 263.729 14.3535C263.528 14.5404 263.371 14.7751 263.257 15.0576C263.143 15.3402 263.086 15.6683 263.086 16.042V20H261.473V12.4326H262.73L262.949 13.7656H263.024C263.175 13.4967 263.362 13.2507 263.585 13.0273C263.808 12.804 264.063 12.6263 264.351 12.4941C264.642 12.3574 264.961 12.2891 265.308 12.2891ZM271.398 12.2891C272.296 12.2891 273.016 12.6172 273.559 13.2734C274.105 13.9297 274.379 14.9049 274.379 16.1992C274.379 17.056 274.251 17.7783 273.996 18.3662C273.745 18.9495 273.392 19.3916 272.937 19.6924C272.485 19.9886 271.959 20.1367 271.357 20.1367C270.975 20.1367 270.642 20.0866 270.359 19.9863C270.077 19.8861 269.835 19.7562 269.635 19.5967C269.434 19.4326 269.266 19.2549 269.129 19.0635H269.033C269.056 19.2458 269.076 19.4486 269.095 19.6719C269.118 19.8906 269.129 20.0911 269.129 20.2734V23.3564H267.516V12.4326H268.828L269.054 13.4785H269.129C269.27 13.2643 269.441 13.0661 269.642 12.8838C269.847 12.7015 270.093 12.5579 270.38 12.4531C270.672 12.3438 271.011 12.2891 271.398 12.2891ZM270.968 13.6016C270.526 13.6016 270.17 13.6904 269.901 13.8682C269.637 14.0413 269.443 14.3034 269.32 14.6543C269.202 15.0052 269.138 15.445 269.129 15.9736V16.1992C269.129 16.7598 269.186 17.236 269.3 17.6279C269.418 18.0153 269.612 18.3115 269.881 18.5166C270.154 18.7171 270.523 18.8174 270.988 18.8174C271.38 18.8174 271.704 18.7103 271.959 18.4961C272.219 18.2819 272.412 17.9766 272.54 17.5801C272.668 17.1836 272.731 16.7165 272.731 16.1787C272.731 15.363 272.586 14.7295 272.294 14.2783C272.007 13.8271 271.565 13.6016 270.968 13.6016ZM280.073 12.2891C280.201 12.2891 280.34 12.2959 280.49 12.3096C280.641 12.3232 280.771 12.3415 280.88 12.3643L280.729 13.8682C280.634 13.8408 280.515 13.8203 280.374 13.8066C280.237 13.793 280.114 13.7861 280.005 13.7861C279.718 13.7861 279.444 13.834 279.185 13.9297C278.925 14.0208 278.695 14.1621 278.494 14.3535C278.294 14.5404 278.136 14.7751 278.022 15.0576C277.909 15.3402 277.852 15.6683 277.852 16.042V20H276.238V12.4326H277.496L277.715 13.7656H277.79C277.94 13.4967 278.127 13.2507 278.351 13.0273C278.574 12.804 278.829 12.6263 279.116 12.4941C279.408 12.3574 279.727 12.2891 280.073 12.2891ZM283.888 12.4326V20H282.281V12.4326H283.888ZM283.095 9.53418C283.341 9.53418 283.553 9.60026 283.73 9.73242C283.913 9.86458 284.004 10.0924 284.004 10.416C284.004 10.735 283.913 10.9629 283.73 11.0996C283.553 11.2318 283.341 11.2979 283.095 11.2979C282.84 11.2979 282.623 11.2318 282.445 11.0996C282.272 10.9629 282.186 10.735 282.186 10.416C282.186 10.0924 282.272 9.86458 282.445 9.73242C282.623 9.60026 282.84 9.53418 283.095 9.53418ZM291.277 17.8398C291.277 18.3366 291.157 18.7559 290.915 19.0977C290.674 19.4395 290.32 19.6992 289.855 19.877C289.395 20.0501 288.83 20.1367 288.16 20.1367C287.632 20.1367 287.176 20.098 286.793 20.0205C286.415 19.9476 286.057 19.8337 285.72 19.6787V18.291C286.08 18.4596 286.483 18.6055 286.93 18.7285C287.381 18.8516 287.807 18.9131 288.208 18.9131C288.737 18.9131 289.117 18.8311 289.35 18.667C289.582 18.4984 289.698 18.2751 289.698 17.9971C289.698 17.833 289.65 17.6872 289.555 17.5596C289.464 17.4274 289.29 17.293 289.035 17.1562C288.785 17.015 288.415 16.8464 287.928 16.6504C287.449 16.459 287.046 16.2676 286.718 16.0762C286.39 15.8848 286.141 15.6546 285.973 15.3857C285.804 15.1123 285.72 14.7637 285.72 14.3398C285.72 13.6699 285.984 13.1618 286.513 12.8154C287.046 12.4645 287.75 12.2891 288.625 12.2891C289.09 12.2891 289.527 12.3369 289.938 12.4326C290.352 12.5238 290.758 12.6582 291.154 12.8359L290.648 14.0459C290.307 13.8955 289.963 13.7725 289.616 13.6768C289.274 13.5765 288.926 13.5264 288.57 13.5264C288.156 13.5264 287.839 13.5902 287.62 13.7178C287.406 13.8454 287.299 14.0277 287.299 14.2646C287.299 14.4424 287.351 14.5928 287.456 14.7158C287.561 14.8389 287.741 14.9619 287.996 15.085C288.256 15.208 288.616 15.3607 289.076 15.543C289.527 15.7161 289.917 15.8984 290.245 16.0898C290.578 16.2767 290.833 16.5068 291.011 16.7803C291.188 17.0537 291.277 17.4069 291.277 17.8398ZM296.028 12.2891C296.703 12.2891 297.282 12.4281 297.765 12.7061C298.248 12.984 298.619 13.3783 298.879 13.8887C299.139 14.3991 299.269 15.0098 299.269 15.7207V16.582H294.217C294.235 17.3158 294.431 17.8809 294.805 18.2773C295.183 18.6738 295.712 18.8721 296.391 18.8721C296.874 18.8721 297.307 18.8265 297.689 18.7354C298.077 18.6396 298.476 18.5007 298.886 18.3184V19.624C298.507 19.8018 298.122 19.9316 297.73 20.0137C297.339 20.0957 296.869 20.1367 296.322 20.1367C295.579 20.1367 294.925 19.9932 294.36 19.7061C293.8 19.4144 293.36 18.9814 293.041 18.4072C292.727 17.833 292.569 17.1198 292.569 16.2676C292.569 15.4199 292.713 14.6999 293 14.1074C293.287 13.515 293.69 13.0638 294.21 12.7539C294.729 12.444 295.336 12.2891 296.028 12.2891ZM296.028 13.499C295.522 13.499 295.112 13.6631 294.798 13.9912C294.488 14.3193 294.306 14.8001 294.251 15.4336H297.696C297.692 15.0553 297.628 14.7204 297.505 14.4287C297.386 14.137 297.204 13.9092 296.958 13.7451C296.716 13.5811 296.407 13.499 296.028 13.499Z" fill="white"/>
</svg>
