<svg width="30" height="28" viewBox="0 0 30 28" fill="none" xmlns="http://www.w3.org/2000/svg">
<path d="M20.89 0.01V4.08L26.53 7.28V20.38L20.89 23.58V27.4L30 22.22V5.18L20.89 0.01ZM0 22.22L9.11 27.39V23.58L3.48 20.38V7.28L9.11 4.08V0L0 5.18V22.22Z" fill="black"/>
<path d="M12.1113 10.5947C14.2202 10.5948 16.1387 11.4314 16.1387 14.0723V20H13.707V19.0312C13.08 19.7912 11.9967 20.2275 10.7998 20.2275C9.33695 20.2275 7.62722 19.2401 7.62695 17.1885C7.62695 15.0225 9.33684 14.2237 10.7998 14.2236C12.0347 14.2236 13.099 14.6228 13.707 15.3447V14.1855C13.7068 13.2549 12.9089 12.6476 11.6934 12.6475C10.7244 12.6475 9.81176 13.0275 9.05176 13.7305L8.10156 12.0391C9.22256 11.0321 10.6673 10.5947 12.1113 10.5947ZM20.9268 20H18.5137V10.8232H20.9268V20ZM11.7686 15.8389C10.8189 15.839 10.0403 16.352 10.04 17.2256C10.04 18.0995 10.8187 18.5936 11.7686 18.5938C12.5476 18.5938 13.308 18.3279 13.707 17.7959V16.6562C13.308 16.1243 12.5476 15.8389 11.7686 15.8389ZM19.71 6.96582C20.5078 6.96582 21.1541 7.5928 21.1543 8.39062C21.1543 9.18862 20.508 9.83496 19.71 9.83496C18.9312 9.83472 18.2852 9.18847 18.2852 8.39062C18.2854 7.59295 18.9313 6.96606 19.71 6.96582Z" fill="#FF8100"/>
</svg>
